<svg xmlns="http://www.w3.org/2000/svg" viewBox="0 0 32 32" fill="none" role="img" aria-label="Geo Job Hunt">
  <!-- Radar Fence: octagonal CRT scope + sweep + quarry pin -->
  <path d="M11.2 3.4h9.6L28.6 11.2v9.6L20.8 28.6h-9.6L3.4 20.8v-9.6L11.2 3.4z" fill="#B8E0D2" stroke="#0A4F45" stroke-width="1.6" stroke-linejoin="round"/>
  <circle cx="16" cy="17" r="8.2" fill="none" stroke="#0A4F45" stroke-width="1.25"/>
  <circle cx="16" cy="17" r="4.5" fill="none" stroke="#0A4F45" stroke-width="1.15"/>
  <!-- radar sweep wedge -->
  <path d="M16 17 L16 8.8 A8.2 8.2 0 0 1 23.1 20.2 Z" fill="#1AA6A0" opacity="0.55"/>
  <!-- job pin -->
  <path d="M16 5.8c-2.45 0-4.4 1.95-4.4 4.35 0 3 3.85 7.35 4.15 7.7a.35.35 0 0 0 .5 0c.3-.35 4.15-4.7 4.15-7.7C20.4 7.75 18.45 5.8 16 5.8z" fill="#E85D04" stroke="#0A4F45" stroke-width="0.85"/>
  <circle cx="16" cy="10.05" r="1.45" fill="#FFF8F0"/>
</svg>
